<?xml version="1.0" encoding="utf-8"?>
<!-- Generator: Adobe Illustrator 25.0.0, SVG Export Plug-In . SVG Version: 6.00 Build 0)  -->
<svg version="1.1" id="Layer_1" xmlns="http://www.w3.org/2000/svg" xmlns:xlink="http://www.w3.org/1999/xlink" x="0px" y="0px"
	 viewBox="0 0 103.81 105.51" style="enable-background:new 0 0 103.81 105.51;" xml:space="preserve">
<g>
	<g>
		<path d="M46.23,11.57c-0.34,0-0.65-0.08-0.95-0.25c-0.3-0.17-0.54-0.41-0.73-0.73c-0.18-0.32-0.28-0.7-0.28-1.15
			c0-0.46,0.1-0.91,0.29-1.33c0.2-0.42,0.45-0.8,0.77-1.13c0.32-0.33,0.68-0.6,1.07-0.79c0.39-0.2,0.78-0.29,1.18-0.29
			c0.3,0,0.54,0.07,0.73,0.21c0.19,0.14,0.35,0.36,0.47,0.65h0.08L48.6,7.85c0.01-0.08,0.02-0.15,0.02-0.22
			c0.01-0.07,0.01-0.13,0.01-0.19c0-0.31-0.08-0.57-0.25-0.77s-0.35-0.31-0.54-0.31c-0.2,0-0.39,0.07-0.57,0.22
			c-0.18,0.15-0.35,0.35-0.5,0.6c-0.16,0.25-0.29,0.54-0.41,0.86c-0.12,0.32-0.21,0.67-0.28,1.03c-0.06,0.36-0.1,0.72-0.1,1.08
			c0,0.35,0.04,0.59,0.12,0.73c0.08,0.13,0.21,0.2,0.38,0.2c0.18,0,0.4-0.07,0.64-0.2c0.24-0.14,0.47-0.36,0.7-0.67
			c0.22-0.31,0.4-0.73,0.53-1.26l-0.38,1.66h-0.08c-0.14,0.22-0.36,0.44-0.64,0.65C46.96,11.47,46.62,11.57,46.23,11.57z M49,11.57
			c-0.21,0-0.39-0.04-0.55-0.11c-0.16-0.07-0.28-0.18-0.37-0.32C48,11,47.96,10.82,47.96,10.6c0-0.1,0.01-0.21,0.04-0.33
			s0.08-0.35,0.16-0.67l0.89-3.56h1.61L49.6,10.4c-0.02,0.1-0.04,0.19-0.05,0.26c-0.01,0.07-0.01,0.11-0.01,0.14
			c0,0.1,0.05,0.16,0.14,0.16c0.12,0,0.29-0.1,0.51-0.31c0.22-0.2,0.44-0.58,0.67-1.13l0.3,0.11c-0.1,0.33-0.26,0.64-0.46,0.94
			c-0.2,0.3-0.44,0.54-0.73,0.73C49.7,11.48,49.37,11.57,49,11.57z"/>
		<path d="M52.53,11.57c-0.34,0-0.6-0.09-0.76-0.28s-0.24-0.41-0.24-0.65c0-0.1,0.01-0.21,0.03-0.35c0.02-0.14,0.05-0.28,0.08-0.43
			l1.67-7.46h1.61l-1.91,8c-0.02,0.1-0.04,0.19-0.05,0.26c-0.01,0.07-0.01,0.11-0.01,0.14c0,0.1,0.05,0.16,0.14,0.16
			c0.11,0,0.27-0.1,0.46-0.31c0.2-0.2,0.39-0.58,0.59-1.13l0.3,0.11c-0.13,0.43-0.29,0.79-0.49,1.09c-0.2,0.29-0.42,0.51-0.66,0.65
			C53.06,11.5,52.8,11.57,52.53,11.57z M52.38,2.75V2.39h1.86v0.36H52.38z"/>
		<path d="M56.27,11.57c-0.34,0-0.6-0.09-0.76-0.28s-0.24-0.41-0.24-0.65c0-0.1,0.01-0.21,0.03-0.35c0.02-0.14,0.05-0.28,0.08-0.43
			l1.67-7.46h1.61l-1.91,8c-0.02,0.1-0.04,0.19-0.05,0.26c-0.01,0.07-0.01,0.11-0.01,0.14c0,0.1,0.05,0.16,0.14,0.16
			c0.11,0,0.27-0.1,0.46-0.31c0.2-0.2,0.39-0.58,0.59-1.13l0.3,0.11c-0.13,0.43-0.29,0.79-0.49,1.09c-0.2,0.29-0.42,0.51-0.66,0.65
			C56.81,11.5,56.55,11.57,56.27,11.57z M56.12,2.75V2.39h1.86v0.36H56.12z"/>
		<path d="M63.58,11.6c-0.47,0-0.89-0.1-1.25-0.29c-0.36-0.19-0.64-0.45-0.84-0.78c-0.2-0.33-0.3-0.7-0.3-1.13
			c0-0.42,0.1-0.84,0.3-1.26c0.2-0.42,0.47-0.79,0.82-1.13c0.35-0.34,0.75-0.61,1.19-0.81c0.45-0.2,0.92-0.31,1.4-0.31
			c0.47,0,0.89,0.1,1.25,0.29c0.36,0.19,0.64,0.45,0.85,0.78c0.2,0.33,0.31,0.7,0.31,1.12c0,0.43-0.1,0.86-0.3,1.27
			c-0.2,0.42-0.48,0.79-0.83,1.13s-0.75,0.61-1.19,0.81C64.55,11.49,64.08,11.6,63.58,11.6z M63.62,11.18c0.3,0,0.57-0.12,0.81-0.35
			c0.24-0.24,0.43-0.54,0.59-0.92c0.16-0.38,0.28-0.79,0.37-1.23c0.08-0.44,0.13-0.87,0.13-1.28c0-0.35-0.04-0.62-0.13-0.8
			c-0.08-0.18-0.25-0.28-0.51-0.28c-0.3,0-0.57,0.12-0.81,0.35c-0.24,0.24-0.43,0.54-0.59,0.92c-0.16,0.38-0.28,0.79-0.37,1.23
			s-0.13,0.87-0.13,1.28c0,0.35,0.04,0.62,0.13,0.8C63.2,11.08,63.37,11.18,63.62,11.18z"/>
		<path d="M66.49,15.33c-0.42,0-0.73-0.11-0.92-0.34c-0.19-0.22-0.29-0.47-0.29-0.73c0-0.22,0.06-0.4,0.19-0.54
			c0.12-0.14,0.31-0.22,0.56-0.22c0.24,0,0.42,0.06,0.54,0.19c0.12,0.13,0.18,0.27,0.18,0.43c0,0.13-0.03,0.23-0.08,0.31
			c-0.05,0.08-0.08,0.17-0.08,0.26c0,0.08,0.02,0.13,0.07,0.16c0.05,0.03,0.12,0.04,0.2,0.04c0.1,0,0.19-0.03,0.27-0.1
			c0.08-0.07,0.17-0.23,0.27-0.47c0.1-0.25,0.21-0.63,0.34-1.15c0.13-0.52,0.29-1.23,0.48-2.14l1.01-4.81
			c0.19-0.9,0.48-1.65,0.85-2.24c0.38-0.59,0.79-1.03,1.25-1.31c0.46-0.29,0.9-0.43,1.33-0.43c0.39,0,0.72,0.11,1,0.32
			c0.27,0.22,0.41,0.5,0.41,0.86c0,0.22-0.06,0.41-0.19,0.57c-0.12,0.16-0.31,0.23-0.57,0.23c-0.22,0-0.41-0.06-0.55-0.19
			c-0.14-0.13-0.21-0.3-0.21-0.5c0-0.2,0.04-0.35,0.13-0.44c0.08-0.09,0.13-0.19,0.13-0.28c0-0.06-0.02-0.12-0.07-0.16
			c-0.05-0.04-0.13-0.06-0.24-0.06c-0.18,0-0.36,0.08-0.53,0.25s-0.33,0.46-0.48,0.86c-0.15,0.41-0.3,0.98-0.43,1.7l-0.78,3.91
			c-0.21,1.06-0.45,1.96-0.73,2.72c-0.28,0.76-0.58,1.38-0.91,1.86c-0.33,0.48-0.67,0.84-1.03,1.07
			C67.24,15.21,66.87,15.33,66.49,15.33z M68.05,6.4V6.04h4.33V6.4H68.05z"/>
	</g>
	<g>
		<path d="M28.02,47.79c-1.22,0-2.27-0.17-3.15-0.51c-0.88-0.34-1.69-0.78-2.43-1.32l-1.41,1.44h-0.9v-6.3h0.93
			c0.24,0.98,0.63,1.9,1.19,2.76c0.55,0.86,1.29,1.56,2.23,2.08c0.94,0.53,2.09,0.79,3.45,0.79c1.12,0,2.05-0.18,2.8-0.54
			c0.75-0.36,1.32-0.85,1.71-1.48c0.39-0.63,0.58-1.32,0.58-2.08c0-0.78-0.18-1.41-0.54-1.89c-0.36-0.48-0.83-0.85-1.4-1.12
			c-0.57-0.27-1.18-0.48-1.83-0.65c-0.65-0.16-1.27-0.31-1.85-0.45c-1.4-0.36-2.63-0.83-3.69-1.43c-1.06-0.59-1.89-1.35-2.48-2.29
			c-0.59-0.94-0.88-2.11-0.88-3.51c0-1.54,0.33-2.81,0.99-3.81c0.66-1,1.53-1.74,2.61-2.23s2.23-0.74,3.45-0.74
			c0.9,0,1.71,0.13,2.42,0.39c0.71,0.26,1.46,0.64,2.27,1.14l1.17-1.26h0.93v6.12h-0.9c-0.58-1.9-1.36-3.26-2.34-4.1
			c-0.98-0.83-2.18-1.24-3.6-1.24c-0.86,0-1.65,0.13-2.35,0.4s-1.27,0.66-1.69,1.16s-0.63,1.09-0.63,1.77
			c0,0.64,0.18,1.17,0.54,1.57c0.36,0.41,0.83,0.73,1.41,0.98c0.58,0.24,1.2,0.44,1.86,0.6c0.66,0.16,1.29,0.31,1.89,0.45
			c1.52,0.36,2.8,0.85,3.84,1.49c1.04,0.63,1.83,1.45,2.37,2.47c0.54,1.02,0.81,2.3,0.81,3.84c0,2.36-0.63,4.2-1.9,5.52
			C32.22,47.13,30.4,47.79,28.02,47.79z"/>
		<path d="M35.7,47.4v-0.9h7.32v0.9H35.7z M38.34,46.95l8.85-22.44h0.78l-1.56,4.77l-7.08,17.67H38.34z M41.07,41.28v-0.87h10.32
			v0.87H41.07z M50.94,46.95l-5.49-15.03h-0.12l-0.18-1.11l2.04-6.3h0.78l8.16,22.44H50.94z M47.64,47.4v-0.9h10.41v0.9H47.64z"/>
		<path d="M58.2,25.68v-0.9h11.13v0.9H58.2z M58.2,47.4v-0.9h12.69c1.12,0,2.07-0.3,2.85-0.9c0.78-0.6,1.38-1.39,1.81-2.37
			c0.43-0.98,0.65-2.04,0.67-3.18h1.2v7.35H58.2z M61.05,46.95V24.78h4.74v22.17H61.05z"/>
		<path d="M96.21,30.78c-0.02-0.92-0.23-1.76-0.62-2.53s-0.94-1.39-1.67-1.86c-0.72-0.47-1.59-0.71-2.61-0.71H78.63v-0.9h18.78v6
			H96.21z M78.63,47.4v-0.9h12.69c1.12,0,2.07-0.3,2.85-0.9c0.78-0.6,1.38-1.39,1.81-2.37c0.43-0.98,0.65-2.04,0.67-3.18h1.2v7.35
			H78.63z M81.48,46.95V24.78h4.74v22.17H81.48z M91.59,40.92c-0.02-0.96-0.21-1.75-0.57-2.37c-0.36-0.62-0.94-1.08-1.74-1.38
			c-0.8-0.3-1.86-0.45-3.18-0.45v-0.9c1.32,0,2.38-0.14,3.18-0.42c0.8-0.28,1.38-0.71,1.74-1.29c0.36-0.58,0.55-1.31,0.57-2.19h1.2
			v9H91.59z"/>
	</g>
	<g>
		<path d="M2.56,102.32v-1.56h8.22V66.65H2.56v-1.56h16.43v35.67h7.7v1.56H2.56z"/>
		<path d="M40.94,102.95c-2.6,0-4.82-0.31-6.66-0.94c-1.84-0.62-3.24-1.49-4.21-2.6c-0.97-1.11-1.46-2.37-1.46-3.8
			c0-1.42,0.43-2.57,1.3-3.43c0.87-0.87,1.99-1.3,3.38-1.3c1.11,0,2.11,0.3,3.02,0.91c0.9,0.61,1.35,1.59,1.35,2.94
			c0,0.83-0.17,1.48-0.49,1.95c-0.33,0.47-0.7,0.84-1.12,1.12c-0.42,0.28-0.79,0.53-1.12,0.75c-0.33,0.23-0.49,0.49-0.49,0.81
			c0,0.42,0.28,0.75,0.83,1.01c0.55,0.26,1.24,0.45,2.05,0.57c0.81,0.12,1.59,0.18,2.31,0.18c2.67,0,4.72-0.79,6.16-2.37
			c1.44-1.58,2.16-3.96,2.16-7.15c0-3.57-0.83-6.15-2.5-7.75c-1.66-1.59-3.8-2.39-6.4-2.39c-1.25,0-2.53,0.15-3.85,0.44
			c-1.32,0.29-2.25,0.67-2.81,1.12l0.57-2.55c0.31-0.17,0.95-0.37,1.92-0.6c0.97-0.23,2.12-0.42,3.46-0.57
			c1.33-0.16,2.7-0.23,4.08-0.23c3.47,0,6.33,0.53,8.58,1.59c2.25,1.06,3.93,2.46,5.04,4.21c1.11,1.75,1.66,3.68,1.66,5.8
			c0,2.57-0.75,4.77-2.26,6.6c-1.51,1.84-3.53,3.24-6.06,4.21C46.88,102.46,44.06,102.95,40.94,102.95z M32.41,83.03l-0.88-0.57
			l1.51-17.37h2.08L33.66,81L32.41,83.03z M34.59,72.32l-1.3-7.23h17.47c1.07,0,1.84-0.12,2.29-0.36c0.45-0.24,0.85-0.78,1.2-1.61
			h1.56l-1.87,9.2H34.59z"/>
	</g>
	<g>
		<path d="M74.25,68.82c-0.8,0-1.52-0.2-2.17-0.59c-0.65-0.39-1.17-0.94-1.54-1.66c-0.38-0.71-0.56-1.54-0.56-2.47
			c0-0.94,0.19-1.76,0.56-2.47c0.38-0.71,0.89-1.27,1.54-1.67c0.65-0.4,1.38-0.6,2.17-0.6c0.81,0,1.54,0.2,2.19,0.6
			c0.64,0.4,1.16,0.95,1.54,1.67c0.38,0.71,0.58,1.54,0.58,2.47c0,0.94-0.19,1.76-0.58,2.47s-0.9,1.27-1.54,1.66
			C75.79,68.62,75.06,68.82,74.25,68.82z M74.25,68.33c0.43,0,0.77-0.11,1.04-0.33c0.26-0.22,0.45-0.64,0.57-1.25
			c0.12-0.61,0.18-1.5,0.18-2.65s-0.06-2.03-0.18-2.65c-0.12-0.61-0.31-1.03-0.57-1.27c-0.26-0.23-0.61-0.34-1.04-0.34
			c-0.46,0-0.82,0.11-1.08,0.34c-0.26,0.23-0.44,0.65-0.55,1.27c-0.11,0.61-0.16,1.5-0.16,2.65s0.05,2.03,0.16,2.65
			c0.11,0.61,0.29,1.03,0.55,1.25C73.43,68.22,73.79,68.33,74.25,68.33z M73.86,76.89l9.43-17.32h1.82l-9.43,17.32H73.86z
			 M84.83,77.07c-0.8,0-1.52-0.2-2.17-0.59c-0.65-0.39-1.17-0.94-1.54-1.66c-0.38-0.71-0.56-1.54-0.56-2.47
			c0-0.94,0.19-1.76,0.56-2.47c0.38-0.71,0.89-1.27,1.54-1.67c0.65-0.4,1.38-0.6,2.17-0.6c0.81,0,1.54,0.2,2.19,0.6
			c0.64,0.4,1.16,0.95,1.54,1.67c0.38,0.71,0.57,1.54,0.57,2.47c0,0.94-0.19,1.76-0.57,2.47c-0.38,0.71-0.9,1.27-1.54,1.66
			C86.37,76.88,85.64,77.07,84.83,77.07z M84.83,76.59c0.43,0,0.77-0.11,1.04-0.33c0.26-0.22,0.45-0.64,0.57-1.24
			c0.12-0.61,0.18-1.49,0.18-2.66c0-1.15-0.06-2.03-0.18-2.65s-0.31-1.04-0.57-1.27c-0.26-0.23-0.61-0.35-1.04-0.35
			c-0.46,0-0.82,0.12-1.08,0.35s-0.44,0.65-0.55,1.27c-0.11,0.61-0.16,1.49-0.16,2.65c0,1.17,0.05,2.05,0.16,2.66
			c0.11,0.61,0.29,1.02,0.55,1.24S84.37,76.59,84.83,76.59z"/>
	</g>
	<g>
		<path d="M85.24,102.12c-0.45,0-0.87-0.07-1.26-0.22s-0.73-0.36-1.03-0.64c-0.29-0.28-0.53-0.6-0.7-0.98s-0.25-0.79-0.25-1.25
			c0-0.45,0.08-0.86,0.25-1.24c0.17-0.38,0.4-0.7,0.7-0.98c0.29-0.27,0.64-0.49,1.03-0.64s0.81-0.23,1.26-0.23s0.87,0.08,1.26,0.23
			s0.73,0.36,1.03,0.64c0.3,0.27,0.53,0.6,0.7,0.98c0.17,0.38,0.25,0.79,0.25,1.24c0,0.46-0.08,0.88-0.25,1.25s-0.4,0.71-0.7,0.98
			c-0.3,0.28-0.64,0.49-1.03,0.64S85.7,102.12,85.24,102.12z M85.24,101.67c0.3,0,0.55-0.07,0.73-0.21c0.18-0.14,0.31-0.4,0.39-0.77
			s0.12-0.92,0.12-1.64c0-0.72-0.04-1.27-0.12-1.65c-0.08-0.38-0.21-0.64-0.39-0.78c-0.18-0.14-0.42-0.21-0.73-0.21
			c-0.3,0-0.54,0.07-0.72,0.21c-0.18,0.14-0.31,0.4-0.38,0.78c-0.08,0.38-0.12,0.93-0.12,1.65c0,0.72,0.04,1.27,0.12,1.64
			c0.08,0.38,0.21,0.63,0.38,0.77C84.7,101.6,84.94,101.67,85.24,101.67z"/>
		<path d="M89.18,96.49V96.1h8.33v0.39H89.18z M89.22,101.95v-0.39h3.78v0.39H89.22z M90.26,101.95v-5.8c0-0.74,0.12-1.38,0.35-1.94
			c0.23-0.56,0.57-1,0.99-1.31c0.43-0.32,0.93-0.47,1.51-0.47c0.54,0,0.96,0.12,1.27,0.37s0.46,0.54,0.46,0.88
			c0,0.26-0.08,0.47-0.25,0.63s-0.38,0.24-0.64,0.24c-0.21,0-0.39-0.06-0.55-0.18c-0.16-0.12-0.24-0.3-0.24-0.55
			c0-0.15,0.03-0.26,0.08-0.34c0.05-0.08,0.1-0.14,0.16-0.2c0.05-0.05,0.08-0.12,0.08-0.2c0-0.16-0.14-0.25-0.43-0.25
			c-0.27,0-0.5,0.09-0.7,0.28c-0.19,0.19-0.29,0.55-0.29,1.09v7.75H90.26z M93.32,101.95v-0.39h4.11v0.39H93.32z M94.32,101.95
			v-6.23c0-0.74,0.12-1.38,0.35-1.94c0.23-0.56,0.57-1,0.99-1.31C96.09,92.15,96.6,92,97.18,92c0.54,0,0.96,0.12,1.27,0.37
			s0.46,0.54,0.46,0.88c0,0.26-0.08,0.47-0.25,0.63c-0.17,0.16-0.38,0.24-0.64,0.24c-0.21,0-0.39-0.06-0.55-0.18
			c-0.16-0.12-0.24-0.3-0.24-0.55c0-0.15,0.03-0.26,0.08-0.34c0.05-0.08,0.1-0.14,0.16-0.19c0.05-0.05,0.08-0.12,0.08-0.2
			c0-0.17-0.14-0.25-0.43-0.25c-0.27,0-0.5,0.09-0.7,0.28s-0.29,0.55-0.29,1.09v8.18H94.32z"/>
	</g>
</g>
</svg>
